<?xml version="1.0" encoding="utf-8"?>
<!-- Generator: Adobe Illustrator 27.0.0, SVG Export Plug-In . SVG Version: 6.00 Build 0)  -->
<svg version="1.1" xmlns="http://www.w3.org/2000/svg" xmlns:xlink="http://www.w3.org/1999/xlink" x="0px" y="0px"
	 viewBox="0 0 140 140" style="enable-background:new 0 0 140 140;" xml:space="preserve">
<style type="text/css">
	.st0{fill:url(#SVGID_1_);}
	.st1{fill:url(#SVGID_00000139287092354475174070000003746361161529476007_);}
	.st2{fill:#313568;}
</style>
<g id="Layer_2">
	<linearGradient id="SVGID_1_" gradientUnits="userSpaceOnUse" x1="61.1614" y1="118.1137" x2="86.4565" y2="-19.5821">
		<stop  offset="8.697972e-03" style="stop-color:#FCFDFF"/>
		<stop  offset="0.155" style="stop-color:#F5FDFF"/>
		<stop  offset="0.4688" style="stop-color:#EDFDFF"/>
		<stop  offset="1" style="stop-color:#EBFDFF"/>
	</linearGradient>
	<path class="st0" d="M110,140H30c-16.6,0-30-13.4-30-30V30C0,13.4,13.4,0,30,0h80c16.6,0,30,13.4,30,30v80
		C140,126.6,126.6,140,110,140z"/>
</g>
<g id="Layer_1">
	
		<linearGradient id="SVGID_00000137820227317883617740000009073663554121772463_" gradientUnits="userSpaceOnUse" x1="42.9541" y1="78.4694" x2="93.9389" y2="60.2458">
		<stop  offset="7.037233e-03" style="stop-color:#313568"/>
		<stop  offset="9.396335e-02" style="stop-color:#403565"/>
		<stop  offset="0.2478" style="stop-color:#543562"/>
		<stop  offset="0.4235" style="stop-color:#62345F"/>
		<stop  offset="0.6377" style="stop-color:#6B345D"/>
		<stop  offset="1" style="stop-color:#6D345D"/>
	</linearGradient>
	<path style="fill:url(#SVGID_00000137820227317883617740000009073663554121772463_);" d="M87.9,77.9h5.9c0.9,0,1.7-0.3,2.3-1
		c0.6-0.6,1-1.4,1-2.3c0-0.9-0.3-1.6-1-2.3c-0.6-0.6-1.4-0.9-2.3-0.9h-5.9c0-1,0-2.1,0-3.1c0-1,0-2,0-3h6c0.9,0,1.7-0.3,2.3-1
		c0.6-0.6,1-1.4,1-2.3c0-0.9-0.3-1.6-1-2.3c-0.6-0.6-1.4-0.9-2.3-0.9h-7.2c-0.6-1.6-1.5-3.1-2.6-4.5s-2.4-2.5-3.9-3.5l5.5-5.5
		c0.7-0.7,1-1.4,1-2.2c0-0.8-0.3-1.6-1-2.3c-0.6-0.7-1.4-1-2.2-1c-0.9,0-1.7,0.3-2.4,1L73.9,48c-1.2-0.3-2.5-0.5-3.8-0.5
		s-2.5,0.2-3.8,0.5l-7.4-7.3c-0.7-0.7-1.5-1.1-2.3-1c-0.8,0-1.5,0.4-2.2,1.1c-0.6,0.7-1,1.4-1,2.3c0,0.8,0.3,1.6,1,2.3l5.6,5.5
		c-1.5,1-2.9,2.2-4,3.5c-1.2,1.3-2,2.9-2.5,4.5h-7.2c-0.9,0-1.7,0.3-2.3,1c-0.6,0.6-1,1.4-1,2.3s0.3,1.6,1,2.3
		c0.6,0.6,1.4,0.9,2.3,0.9h6c0,1-0.1,2-0.1,3c0,1,0,2,0,3.1h-5.9c-0.9,0-1.7,0.3-2.3,1c-0.6,0.6-1,1.4-1,2.3c0,0.9,0.3,1.6,1,2.3
		c0.6,0.6,1.4,0.9,2.3,0.9h5.9c0,1,0,2,0,3c0,1,0,2,0,3h-6c-0.9,0-1.7,0.3-2.3,1c-0.6,0.6-1,1.4-1,2.3s0.3,1.6,1,2.3
		c0.6,0.6,1.4,0.9,2.3,0.9h7.2c1.3,3.4,3.4,6.2,6.5,8.2c3,2,6.4,3.1,10.2,3.1s7.1-1,10.2-3.1c3-2,5.2-4.8,6.5-8.2h7.2
		c0.9,0,1.7-0.3,2.3-1c0.6-0.6,1-1.4,1-2.3s-0.3-1.6-1-2.3c-0.6-0.6-1.4-0.9-2.3-0.9h-6c0-1,0-2,0-3C87.9,79.9,87.9,78.9,87.9,77.9z
		 M81.4,83.8c-0.1,3.2-1.3,5.9-3.5,8.1c-2.2,2.2-4.8,3.3-7.9,3.3c-3.3,0-6-1.1-8.2-3.3c-2.2-2.2-3.3-4.9-3.2-8.1V65.5
		c0.1-3.2,1.2-5.9,3.4-8.1c2.2-2.2,4.9-3.3,8.1-3.3c3.2,0,6,1.1,8.2,3.3c2.2,2.2,3.3,4.9,3.2,8.1V83.8z M75.8,78.1
		c0.6,0.6,0.9,1.4,0.9,2.3s-0.3,1.6-1,2.3s-1.4,0.9-2.3,0.9h-7c-0.9,0-1.6-0.3-2.3-1c-0.6-0.6-0.9-1.4-0.9-2.3s0.3-1.6,1-2.3
		c0.6-0.6,1.4-0.9,2.3-0.9h7C74.4,77.1,75.2,77.4,75.8,78.1z M75.8,66.7c0.6,0.6,0.9,1.4,0.9,2.3s-0.3,1.6-1,2.3
		c-0.6,0.6-1.4,0.9-2.3,0.9h-7c-0.9,0-1.6-0.3-2.3-1c-0.6-0.6-0.9-1.4-0.9-2.3c0-0.9,0.3-1.6,1-2.3c0.6-0.6,1.4-0.9,2.3-0.9h7
		C74.4,65.7,75.2,66,75.8,66.7z"/>
	<path class="st2" d="M24,41.9c-1.1,0-2-0.4-2.8-1.2C20.4,39.9,20,39,20,37.9v-10c0-2.2,0.8-4,2.3-5.6c1.5-1.5,3.4-2.3,5.6-2.3h10
		c1.1,0,2,0.4,2.8,1.2c0.8,0.8,1.2,1.7,1.2,2.8c0,1.1-0.4,2-1.2,2.8c-0.8,0.8-1.7,1.2-2.8,1.2h-10v10c0,1.1-0.4,2-1.2,2.8
		C26,41.5,25.1,41.9,24,41.9z M27.9,120c-2.2,0-4-0.8-5.6-2.3s-2.3-3.4-2.3-5.6v-10c0-1.1,0.4-2,1.2-2.8c0.8-0.8,1.7-1.2,2.8-1.2
		s2,0.4,2.8,1.2c0.8,0.8,1.2,1.7,1.2,2.8v10h10c1.1,0,2,0.4,2.8,1.2c0.8,0.8,1.2,1.7,1.2,2.8s-0.4,2-1.2,2.8
		c-0.8,0.8-1.7,1.2-2.8,1.2H27.9z M112.1,120h-10c-1.1,0-2-0.4-2.8-1.2c-0.8-0.8-1.2-1.7-1.2-2.8c0-1.1,0.4-2,1.2-2.8
		c0.8-0.8,1.7-1.2,2.8-1.2h10v-10c0-1.1,0.4-2,1.2-2.8c0.8-0.8,1.7-1.2,2.8-1.2c1.1,0,2,0.4,2.8,1.2c0.8,0.8,1.2,1.7,1.2,2.8v10
		c0,2.2-0.8,4-2.3,5.6C116.1,119.2,114.3,120,112.1,120z M113.3,40.7c-0.8-0.8-1.2-1.7-1.2-2.8v-10h-10c-1.1,0-2-0.4-2.8-1.2
		c-0.8-0.8-1.2-1.7-1.2-2.8s0.4-2,1.2-2.8c0.8-0.8,1.7-1.2,2.8-1.2h10c2.2,0,4,0.8,5.6,2.3c1.5,1.5,2.3,3.4,2.3,5.6v10
		c0,1.1-0.4,2-1.2,2.8c-0.8,0.8-1.7,1.2-2.8,1.2C115,41.9,114.1,41.5,113.3,40.7z"/>
</g>
</svg>
